<?xml version="1.0" encoding="UTF-8"?>
<svg id="Réteg_2" xmlns="http://www.w3.org/2000/svg" xmlns:xlink="http://www.w3.org/1999/xlink" version="1.1" viewBox="0 0 944.8 269">
  <!-- Generator: Adobe Illustrator 29.2.1, SVG Export Plug-In . SVG Version: 2.1.0 Build 116)  -->
  <defs>
    <style>
      .st0 {
        fill: #00ad4f;
      }

      .st1 {
        fill: #034ea1;
      }

      .st2 {
        fill: #fff;
      }

      .st3 {
        fill: #fff100;
      }

      .st4 {
        fill: #ec1b30;
      }
    </style>
  </defs>
  <rect class="st2" y="1" width="944.8" height="267"/>
  <g>
    <g>
      <g>
        <path class="st1" d="M558.5,69.5c-.8,0-1.5.7-1.5,1.5s.7,1.5,1.5,1.5,1.5-.7,1.5-1.5-.7-1.5-1.5-1.5M558.5,71.9c-.5,0-.8-.4-.8-.8s.4-.8.8-.8.8.4.8.8-.4.8-.8.8"/>
        <path class="st1" d="M552.7,70.6c-.7,0-1.2.5-1.2,1.2s.5,1.2,1.2,1.2,1.2-.5,1.2-1.2-.6-1.2-1.2-1.2M552.7,72.3c-.3,0-.5-.2-.5-.5s.2-.5.5-.5.5.2.5.5-.2.5-.5.5"/>
        <path class="st1" d="M567,82.6c-1.8,0-3.5,1.5-3.5,3.1s1.9,2,3.5,2,3.5-.5,3.5-2-1.8-3.1-3.5-3.1M567,87c-1,0-2.9-.3-2.9-1.4s1.5-2.4,2.9-2.4,2.9,1.2,2.9,2.4-1.9,1.4-2.9,1.4"/>
        <path class="st1" d="M575.5,69.5c-.8,0-1.5.7-1.5,1.5s.7,1.5,1.5,1.5,1.5-.7,1.5-1.5-.7-1.5-1.5-1.5M575.5,71.9c-.5,0-.8-.4-.8-.8s.4-.8.8-.8.8.4.8.8c0,.4-.3.8-.8.8"/>
        <path class="st1" d="M581.3,70.6c-.6,0-1.2.5-1.2,1.2s.5,1.2,1.2,1.2,1.2-.5,1.2-1.2-.5-1.2-1.2-1.2M581.3,72.3c-.3,0-.5-.2-.5-.5s.2-.5.5-.5.5.2.5.5-.2.5-.5.5"/>
        <path class="st1" d="M578.6,82.8h-4.5c-.2,0-.3,0-.3.3v3.9c0,.2,0,.3.3.3h4.5c.2,0,.3,0,.3-.3v-3.9c0,0,0-.3-.3-.3M578.3,86.8h-3.8v-3.3h3.8v3.3Z"/>
        <path class="st1" d="M582.4,82.9h-1.1c-.7,0-1.2.6-1.2,1.2v2.1c0,.7.6,1.2,1.2,1.2h1.1c.7,0,1.2-.6,1.2-1.2v-2.1c0-.7-.6-1.2-1.2-1.2M583,86.2c0,.3-.3.6-.6.6h-1.1c-.3,0-.6-.3-.6-.6v-2.1c0-.3.3-.6.6-.6h1.1c.3,0,.6.3.6.6v2.1Z"/>
        <path class="st1" d="M591.3,90.2c0-.2,0-.3-.3-.3h-2.8v-14.9c.4,0,.7-.5.7-1s-.5-1-1-1-1,.5-1,1,.3.9.7,1v4l-1.5-4.6s0-.2-.2-.2c.6,0,1.1-.6,1.1-1.2s-.5-1.2-1.2-1.2h-.3l-.7-3v-.2l-10-6.9h-6.2c.3-.3.4-.6.5-1,0-.5,0-1-.3-1.4-.4-.5-1-.9-1.6-.8l-1.2-1.8,1.4-1h0c.3,0,.6,0,.8-.2.3-.2.5-.5.6-.9s0-.8-.2-1.1c-.3-.4-.7-.6-1.2-.6s-.5,0-.8.2c-.4.3-.6.7-.6,1.1l-1.2.8-1.1-1.6c0-.4,0-.8-.2-1.1-.3-.4-.7-.6-1.2-.6s-.5,0-.8.2c-.7.4-.8,1.3-.4,2,.2.3.6.6,1,.6l1.1,1.6-1.2.8c-.4-.2-.9,0-1.3,0-.6.4-.8,1.3-.4,2,.3.4.7.6,1.2.6s.5,0,.8-.2.5-.4.6-.7l1.4-1,1.2,1.8c-.3.6-.2,1.3,0,1.8,0,0,.2.2.2.3h-6.2l-10,6.9v.2l-.7,3h-.3c-.7,0-1.2.5-1.2,1.2s.5,1.1,1.1,1.2c0,0-.2,0-.2.2l-1.5,4.6v-3.9c.4,0,.7-.5.7-1s-.5-1-1-1-1,.5-1,1,.3.9.7,1v14.9h-3.1c-.2,0-.3,0-.3.3v39.8c0,10.6,6.4,16.4,11.8,19.4,2.9,1.6,5.9,2.5,8.6,3.3,1.5.5,2.8.8,3.9,1.3h.2c1.1-.5,2.4-.9,3.9-1.3,2.6-.8,5.6-1.7,8.6-3.3,5.4-3,11.8-8.8,11.8-19.4v-39.8M587.5,74c0-.2.2-.4.4-.4s.4.2.4.4-.2.4-.4.4-.4-.2-.4-.4M588.6,90.5v20.9c-.2.2-.6.6-1.5.6h-.3v-21.5h1.8ZM587.1,116.5h-5.7c-.2,0-.3,0-.3.3v8.2h-.2v-.3c0-1-1.5-1.4-1.7-1.4-.3,0-1.7.5-1.7,1.4v.3h-.2v-8.2c0-.2,0-.3-.3-.3h-5.7c-.7,0-1.2.2-1.5.4v-4.6c.3.2.8.4,1.5.4h5.7c.2,0,.3,0,.3-.3v-6.4c0-.2,0-.3-.3-.3h-3.3c-.7,0-1.2.2-1.5.4v-4.6c.3.2.9.4,1.5.4h3.3c.2,0,.3,0,.3-.3v-5.5c0-.7-.2-1.4-.4-1.8h4.5c-.2.4-.4,1.1-.4,1.8v5.5c0,.2,0,.3.3.3h3.3c.7,0,1.2-.2,1.5-.4v4.6c-.3-.2-.9-.4-1.5-.4h-3.3c-.2,0-.3,0-.3.3v6.4c0,.2,0,.3.3.3h5.7c.7,0,1.2-.2,1.5-.4v4.6c-.3-.2-.8-.4-1.4-.4M588.6,117.7v14.6h-.2c-.5,0-.9.1-1.3.3h0s-.2.1-.3.2v-15.6h.3c.8,0,1.3.3,1.5.5M572.2,125.5s1.1,1.7,1.1,6c-.4.6-.7,1.2-.9,1.8,0-.1-.2-.2-.3-.2v-7.7h0M572.2,125.2v-8.1h1.8v8.2c-.2-.3-.5-.5-1-.5s-.4,0-.6.2c-.2,0-.2.2-.2.2M572.9,125.5h0c.4,0,.7.6.7.6,0,0,0,.2.3.2h.3c0,0,.2-.2.2-.2.2,0,.6.6.7.9h0s0,.2-.2,1v.2c-.2,0-.3-.1-.4-.3,0,0-.2-.2-.4,0,0,0-.2.2-.2.3,0,.6.6,1,.9,1.3h-1c-.2-2.1-.6-3.2-.9-3.8M578.2,125.1v-.4c0-.4.8-.7,1-.8.2,0,1,.4,1,.8v.4s-.2.2-.2.4h0v.3h.3q.2,0,.3-.2c0-.2.2,0,.4,0h.2c.3.2.5.7.5.9s-.4,1-.8,1h-.4s-.2-.2-.4-.2h-.2s-.2,0-.3.2,0,.2,0,.3c0,0,.3.6.7,1.1,0,.1.2.2.3.3h-3.1c0-.1.2-.2.3-.3.4-.4.7-1,.7-1.1v-.3s-.2-.2-.3-.2h-.2c-.2,0-.3,0-.4.2h-.4c-.4,0-.7-.8-.8-1,0-.2.2-.7.5-.9h.6s.2,0,.3.2h.3c0,0,0-.2,0-.2h0c0-.3,0-.4,0-.5M584.1,127.6h-.4l-.3.3v-.2c-.3-.8-.2-.9-.2-.9h0c0-.3.5-.9.7-.9s.2,0,.2.2c0,0,.2.2.3,0,0,0,.2,0,.3-.2,0,0,.3-.6.7-.6h0c-.3.5-.7,1.7-.9,3.7h-1c.3-.2.9-.7.9-1.3s0-.2-.2-.3M583.7,125.3c-.7,0-1.2,1.2-1.2,1.3h0c0,.2,0,.4.2,1.4,0,.4.3.6.5.6h0c-.2,0-.5-.3-1-.3s-.7.2-.9.4h0s-.2-.1-.3-.3c0,0,0-.1-.2-.2h.3c.9,0,1.4-1.4,1.4-1.7s-.3-1-.7-1.4v-8.2h2.1v8.4h-.2ZM582.7,129.2h-1.1c.2-.2.3-.3.4-.3.4.1.6.3.7.3M576.6,125.3c-.5.4-.7,1.2-.7,1.4s.4,1.7,1.4,1.7h.3c0,0,0,.1-.2.2,0,.2-.2.2-.3.3h0c-.2-.2-.5-.4-.9-.4s-.8.2-1,.4h0c.2-.2.4-.4.5-.7.3-.9.3-1.1.2-1.4h0s-.5-1.1-1.2-1.3v-8.2h2v8h0ZM576.7,129.2h-1.1c0-.1.2-.3.6-.3,0,.1.3.2.5.3h0M584.4,129.9v1.3h-10.3v-1.3h10.5-.2ZM584.4,131.8c.4.7.8,1.4,1,2.2l-2.2-2.2h1.2ZM585,131.5c0-4.3,1.1-6,1.1-6h0v7.7c0,.1,0,.2-.2.2-.2-.6-.5-1.3-.9-1.9M586,125c-.2,0-.4-.2-.6-.2-.4,0-.8.2-1,.5v-8.2h1.8v8.1c0,0-.2,0-.2-.2M571.5,117.1v15.5c-.5-.2-1-.4-1.5-.4h-.3v-14.6c.2-.2.6-.5,1.5-.5h.3ZM569.7,111.4v-20.9h1.8v21.5h-.3c-.9,0-1.3-.4-1.5-.6M572.2,112v-5.2c.2-.2.7-.6,1.5-.6h.3v5.7h-1.8ZM574.6,106.3h2.1v5.7h-2.1v-5.7ZM572.2,100.6v-10.1h1.8v10.6h-.3c-.9,0-1.4-.4-1.5-.5M576.1,93.9s.5,1,.5,2v5.2h-2v-10.6h1.8v3s-.2,0-.3.2v.2M577,90.5h1.8v3h-1.8v-3ZM579.5,90.5h1.8v3h-1.8v-3ZM582.2,93.6s-.2,0-.3-.2v-3h1.8v10.6h-2.1v-5.2c0-1,.5-2,.5-2v-.2M584.3,101.1v-10.6h1.8v10.1c-.2.2-.7.6-1.5.6h-.3ZM586.1,106.8v5.2h-1.8v-5.7h.3c.9,0,1.4.4,1.5.5M583.7,112h-2.1v-5.7h2.1v5.7ZM585,82.8c-.2,0-.3,0-.3.3v3.9c0,.2,0,.3.3.3h2.5v.9h-15.2v-6.2h15.2v.9h-2.5ZM587.6,86.8h-2.2v-3.3h2.2v3.3ZM587,79.4h-2.5l1.3-3.9,1.2,3.9ZM585.8,72.5c.3,0,.5.2.5.5s-.2.5-.5.5-.5-.2-.5-.5.2-.5.5-.5M572.4,62.4h1.9l9.8,6.8.8,3.1c-2-4.3-6.7-7.7-12.5-9v-.9ZM572.4,63.9c5.8,1.4,10.5,4.9,12.2,9.3,0,.5.5.9,1.1,1,0,0-.2,0-.2.2l-1.4,4.2v-2.6c0-1.5-1.3-2.8-2.8-2.8s-2.8,1.3-2.8,2.8v3.4l-2.7-6.6s-.2-.2-.3-.2-.2,0-.3.2l-2.7,6.7h0v-15.6h0ZM583.5,76v3.4h-4.3v-3.4c0-1.2,1-2.2,2.2-2.2s2.1,1,2.1,2.2M577.8,79.4h-4.6l2.3-5.7,2.3,5.7ZM570.3,62.4h1.4v10.1c-.4-.7-.9-1.2-1.4-1.7v-8.4ZM564.4,57.1h-.3l-2,1.3h0c0,.3-.2.5-.3.6s-.3,0-.4,0c-.3,0-.5,0-.7-.4s0-.8.2-1.1c.2-.2.6-.2.8,0h.2l1.9-1.2h0v-.3l-1.5-2.2h-.2c-.3,0-.5,0-.6-.4-.2-.4,0-.8.2-1.1h.4c.3,0,.5,0,.7.3,0,.2.2.5,0,.7v.2l1.4,2.2h.3l1.9-1.2v-.2c0-.3,0-.6.3-.7h.4c.3,0,.5,0,.6.4,0,.2.2.4,0,.6,0,.2-.2.4-.3.5h-.6l-2,1.3h0v.3l1.7,2.5h.2c.5,0,.9,0,1.2.5.2.3.2.6.2.9s-.3.6-.5.8c-.2,0-.4.2-.7.2s-.8-.2-1-.5c-.3-.4-.3-.9,0-1.3v-.2l-1.6-2.5h0ZM564.3,62.4h5.3v8c-.7-.4-1.6-.7-2.5-.7,1,0,1.7-.8,1.7-1.7s-.8-1.7-1.8-1.7-1.8.8-1.8,1.7.8,1.6,1.7,1.7c-.9,0-1.8.3-2.5.7v-8h-.1ZM567,69c-.7,0-1.2-.5-1.2-1.1s.5-1.1,1.2-1.1,1.2.5,1.2,1.1-.5,1.1-1.2,1.1M562.2,62.4h1.4v8.4c-.6.5-1.1,1-1.4,1.7v-10.1ZM562.2,75c0-2.6,2.1-4.8,4.7-4.8s4.8,2.1,4.8,4.8v4.4h-9.5v-4.4ZM549.9,69.1l9.9-6.8h1.8v.9c-5.7,1.3-10.4,4.7-12.5,9l.8-3.1ZM549.4,73.3c1.7-4.4,6.4-8,12.2-9.3v15.5h0l-2.7-6.7s-.2-.2-.3-.2-.2,0-.3.2l-2.7,6.6v-3.4c0-1.5-1.3-2.8-2.8-2.8s-2.8,1.3-2.8,2.8v2.6l-1.4-4.2s0-.2-.2-.2c.5,0,1-.4,1.1-.9M560.8,79.4h-4.6l2.3-5.7,2.3,5.7ZM554.8,76v3.4h-4.3v-3.4c0-1.2,1-2.2,2.2-2.2s2.1,1,2.1,2.2M547.7,73c0-.3.2-.5.5-.5s.5.2.5.5-.2.5-.5.5-.5-.2-.5-.5M548.2,75.6l1.3,3.9h-2.5l1.2-3.9ZM587.6,81.3h-41.1v-1.2h41.1v1.2ZM571.8,88.3h-9.5v-6.3h9.5v6.3ZM549,87.4c.2,0,.3,0,.3-.3v-3.9c0-.2,0-.3-.3-.3h-2.5v-.9h15.2v6.4h-15.2v-.9h2.5ZM546.4,83.5h2.2v3.3h-2.2v-3.3ZM545.7,74c0-.2.2-.4.4-.4s.4.2.4.4-.2.4-.4.4-.4-.2-.4-.4M545.6,90.5h1.8v7.3h-1.8v-7.3ZM543.3,90.5h1.7v7.3h-1.7v-7.3M543.3,106.3h1.7v7.2h-1.7v-7.2M543.3,122h1.7v7.2h-1.7v-7.2M545,138.6c0-.3-.2-.6-.4-.9h.4v.9ZM547.4,142.7c-.6-.8-1.2-1.7-1.8-2.7v-2.2h1.8v4.9ZM549.8,145h-.3c-.5-.5-1-1-1.4-1.5v-5.7h1.8v7.2h0ZM566.6,153.2c-1-.4-2.2-.7-3.5-1.1-2.6-.8-5.6-1.7-8.4-3.2-1.5-.8-3.1-1.9-4.6-3.2h16.5v7.5ZM550.4,137.8h1.8v7.2h-1.8v-7.2ZM552.8,137.8h1.8v7.2h-1.8v-7.2ZM555.2,137.8h1.8v7.2h-1.8v-7.2ZM557.6,137.8h1.8v7.2h-1.8v-7.2ZM560,137.8h1.8v7.2h-1.8v-7.2ZM562.4,137.8h1.8v7.2h-1.8v-7.2ZM566.6,145h-1.8v-7.2h1.8v7.2ZM566.6,137.1h-22.2c-.7-2.1-1.1-4.4-1.1-7.1h0c0-.1,23.4-.1,23.4-.1v7.2h-.1ZM545.6,122h1.8v7.2h-1.8v-7.2ZM548,122h1.8v7.2h-1.8v-7.2ZM550.4,122h1.8v7.2h-1.8v-7.2ZM552.8,122h1.8v7.2h-1.8v-7.2ZM555.2,122h1.8v7.2h-1.8v-7.2ZM557.6,122h1.8v7.2h-1.8v-7.2ZM560,122h1.8v7.2h-1.8v-7.2ZM562.4,122h1.8v7.2h-1.8v-7.2ZM566.6,129.2h-1.8v-7.2h1.8v7.2ZM566.6,121.4h-23.3v-7.2h23.3v7.2ZM545.6,106.3h1.8v7.2h-1.8v-7.2ZM548,106.3h1.8v7.2h-1.8v-7.2ZM550.4,106.3h1.8v7.2h-1.8v-7.2ZM552.8,106.3h1.8v7.2h-1.8v-7.2ZM555.2,106.3h1.8v7.2h-1.8v-7.2ZM557.6,106.3h1.8v7.2h-1.8v-7.2ZM560,106.3h1.8v7.2h-1.8v-7.2ZM562.4,106.3h1.8v7.2h-1.8v-7.2ZM566.6,113.5h-1.8v-7.2h1.8v7.2ZM566.6,105.6h-23.3v-7.2h23.3v7.2ZM548,90.5h1.8v7.3h-1.8v-7.3ZM550.4,90.5h1.8v7.3h-1.8v-7.3ZM552.8,90.5h1.8v7.3h-1.8v-7.3ZM555.2,90.5h1.8v7.3h-1.8v-7.3ZM557.6,90.5h1.8v7.3h-1.8v-7.3ZM560,90.5h1.8v7.3h-1.8v-7.3ZM562.4,90.5h1.8v7.3h-1.8v-7.3ZM566.6,97.8h-1.8v-7.3h1.8v7.3ZM546.4,89h41.1v.9h-41.1v-.9ZM569.1,90.5v41.9c-.7.2-1.4.7-1.8,1.4v-43.3h1.8ZM567.3,153.3v-2.1l1.5,1.5c-.6.2-1.1.4-1.5.6M570.8,152.1c-.5.1-.9.3-1.4.4l-2.2-2.2v-2.5l4.2,4.2c-.2,0-.4,0-.6.1M572.1,151.7l-4.9-4.9v-2.5l6.8,6.8c-.6.2-1.2.4-1.9.6M574.7,150.9l-7.5-7.5v-2.5l9.3,9.3c-.6.2-1.2.4-1.8.7M577.2,149.9l-9.9-9.9v-2.5l11.6,11.6c-.6.3-1.1.5-1.7.8M579.5,148.7l-12.2-12.2v-.5h0c0-.6.2-1.1.4-1.6l13.4,13.4c-.6.3-1.1.6-1.6.9M581.6,147.4l-13.6-13.5c.4-.5,1-.8,1.6-.9l13.3,13.4c-.4.3-.8.7-1.3,1M583.5,145.9l-12.9-12.9c.7.2,1.2.6,1.6,1.2,0,.1.2.2.3.1,0,0,.2-.1.3-.2,0-.4.2-.7.4-1l11.6,11.6c-.4.4-.8.8-1.3,1.2M585.3,144.2l-11.8-11.8c0-.2.2-.4.4-.6h1.6l11,11c-.4.5-.8,1-1.2,1.4M586.8,142.4l-10.5-10.5h2.5l9,9c-.3.5-.6,1-1,1.5M588.2,140.3l-8.4-8.4h2.5l6.7,6.7c-.2.6-.5,1.1-.8,1.7M589.3,137.9l-3.4-3.4s0-.1.2-.1c.3-.5.7-.9,1.1-1.1l2.8,2.8c-.2.6-.5,1.2-.7,1.8M590.1,135.3l-2.3-2.3c.2,0,.4-.1.6-.1.8,0,1.5.4,2,1,0,.5-.2,1-.3,1.4M590.5,133.1c-.4-.3-.9-.6-1.3-.7v-20.8h0v-21.1h1.5v39.5c0,1.1,0,2.1-.3,3.1"/>
        <path class="st1" d="M555.4,87.4h4.5c.2,0,.3,0,.3-.3v-3.9c0-.2,0-.3-.3-.3h-4.5c-.2,0-.3,0-.3.3v3.9c0,.2,0,.3.3.3M555.7,83.5h3.8v3.3h-3.8v-3.3Z"/>
        <path class="st1" d="M551.6,87.4h1.1c.7,0,1.2-.6,1.2-1.2v-2.1c0-.7-.6-1.2-1.2-1.2h-1.1c-.7,0-1.2.6-1.2,1.2v2.1c0,.7.5,1.2,1.2,1.2M551,84.1c0-.3.3-.6.6-.6h1.1c.3,0,.6.3.6.6v2.1c0,.3-.3.6-.6.6h-1.1c-.3,0-.6-.3-.6-.6v-2.1Z"/>
      </g>
      <path class="st1" d="M500.8,179.4c.1.8.2,1.9,1.1,2.2.6.2,1.2.2,1.4.2s.2,0,.2.1-.2.2-.4.2c-.5,0-2.7-.1-3.5-.1s-.6-.1-.6-.2,0-.1.1-.1.1-.4.1-.8l-1-10.8h-.1l-5.1,10.9c-.4.9-.5,1.1-.7,1.1s-.3-.2-.6-1c-.5-1-2.4-4.7-2.5-4.9-.2-.4-2.5-5.4-2.8-6h-.1l-.8,9.7v1.1c0,.3.2.6.5.6.4.1.7.1.8.1s.2,0,.2.1-.1.2-.4.2c-.8,0-1.8-.1-2-.1s-1.2.1-1.8.1-.4,0-.4-.2.1-.1.2-.1c.2,0,.3,0,.6-.1.7-.1.8-.9.8-1.7l1.5-13.7c0-.2.1-.4.2-.4s.2.1.3.3l6.4,13.2,6.2-13.2c.1-.2.2-.3.3-.3s.2.2.3.6l1.6,13h0Z"/>
      <path class="st1" d="M509.7,169c.2-.6.3-.7.4-.7.2,0,.2.3.4.7.3.8,3.3,8.1,4.4,10.8.7,1.6,1.2,1.8,1.6,2,.3.1.5.1.7.1s.2,0,.2.1-.2.1-.4.1h-2.9c-.4,0-.6,0-.6-.1h0c0-.1.3-.3.2-.6l-1.7-4.1c0-.1-.1-.1-.2-.1h-4.3c0,0-.1,0-.2.1l-1.1,2.9c-.2.4-.3.9-.3,1.2s.3.5.6.5h.2c.1,0,.2.1.2.1,0,.1-.1.1-.3.1-.4,0-1.5-.1-1.7-.1s-1.1.1-1.9.1-.4,0-.4-.1.1-.1.2-.1h.5c.8-.1,1.2-.7,1.6-1.6l4.7-11.3h0ZM511.7,176.4c0,0,.1,0,.1-.1l-1.8-4.9c-.1-.3-.2-.3-.3,0l-1.7,4.9c0,0,0,0,.1.1h3.6,0Z"/>
      <path class="st1" d="M527.7,177.6c0-1.4,0-1.7-.8-1.8h-.6q0-.2.3-.2h4c.2,0,.3,0,.3.1h0c0,.1-.5.1-.5.1-.5.1-.7.4-.7,1v3.8c0,.5,0,.9-.3,1-1.2.6-2.9.8-3.9.8s-4-.2-6.1-1.9c-1.1-.9-2.2-2.9-2.2-5.1s1.5-4.9,3.1-5.9c1.7-1,3.5-1.1,4.9-1.1s2.5.2,2.8.3c.4.1,1,.2,1.5.2s.2.1.2.2v2.5c0,1.8,0,.4-.2.4s0-.1,0-.3,0-.8-.4-1.2c-.5-.7-1.9-1.4-4.3-1.4s-2.5.1-3.9,1.2c-1.1.8-1.8,2.4-1.8,4.5s1.3,4.3,2,4.9c1.5,1.4,3,1.9,4.7,1.9s1.5-.1,2-.3c.2-.1.4-.2.4-.5v-3.2h-.5Z"/>
      <path class="st1" d="M537.2,177.5c0-1,0-1.3-.4-1.8,0-.3-2.6-4.2-3.3-5.2-.4-.7-.9-1.1-1.2-1.3s-.6-.3-.8-.3-.2-.1-.2-.2,0-.1.2-.1h3.4c.1,0,.2,0,.2.1q0,.1-.3.2c0,.1-.2.1-.2.3,0,.3,0,.5.3.7l3.4,5.6c.4-.8,2.7-4.6,3-5.2.2-.4.3-.7.3-.9,0-.3,0-.4-.3-.5-.2,0-.3-.1-.3-.2s0-.1.3-.1h3.1s.2,0,.2.1,0,.2-.2.2-.6.1-.9.2c-.4.2-.5.4-.9.9-.6.7-3.2,4.9-3.6,5.7-.3.6-.2,1.2-.2,1.8v3.3c0,.5.2.9.7.9s.7.1.8.1,0,.1,0,.1q0,.1-.3.1c-1,0-2.2-.1-2.3-.1s-1.3.1-1.8.1-.3,0-.3-.1h0c.2-.1.4-.1.5-.2.4-.1.5-.4.5-.9v-3.3h.6Z"/>
      <path class="st1" d="M549.7,169c.2-.6.3-.7.4-.7.2,0,.3.3.4.7.3.8,3.3,8.1,4.4,10.8.7,1.6,1.2,1.8,1.6,2,.3.1.5.1.7.1s.2,0,.2.1-.2.1-.4.1h-2.9c-.4,0-.7,0-.7-.1h0c0-.1.3-.3.2-.6l-1.7-4.1q0-.1-.2-.1h-4.3s0,0-.2.1l-1.1,2.9c-.2.4-.3.9-.3,1.2s.3.5.6.5h.4q0,.2-.3.2c-.4,0-1.5-.1-1.7-.1s-1.1.1-1.9.1-.4,0-.4-.1,0-.1.2-.1h.5c.8-.1,1.2-.7,1.6-1.6l4.8-11.3h.1ZM551.7,176.4h0c0-.1-1.8-5-1.8-5,0-.3-.2-.3-.3,0l-1.7,4.9h0c0,.1,3.6.1,3.6.1h.2Z"/>
      <path class="st1" d="M560.4,173.8v-3.8c0-.6,0-.9-.8-1h-.6q0-.2.3-.2h4.5c1.2,0,2.5.1,3.4.8.5.3,1.3,1.2,1.3,2.4s-.5,2.6-2.3,4.1c1.5,1.9,2.8,3.5,3.9,4.6,1,1,1.6,1.2,2.1,1.2.4.1.5.1.7.1s.2.1.2.1q0,.1-.4.1h-1.2c-1.1,0-1.5-.1-2-.4-.8-.4-1.5-1.3-2.5-2.6-.8-1-1.6-2.1-2-2.6,0,0,0-.1-.3-.1h-2.4v4.3c0,.5.2.9.7.9s.7.1.8.1,0,.1,0,.1q0,.1-.3.1c-1,0-2.2-.1-2.3-.1,0,0-1.3.1-1.8.1s-.3,0-.3-.1h0c.2-.1.4-.1.6-.2.4-.1.4-.4.5-.9v-7h.2ZM561.9,175.3v.2c.3.1,1.2.3,2,.3s.9,0,1.4-.3c.6-.4,1.1-1.4,1.1-2.7,0-2.2-1.2-3.5-3.2-3.5s-1.1.1-1.3.1,0,.1,0,.2v5.7Z"/>
      <path class="st1" d="M579.4,168.4c4.2,0,7.3,2.5,7.3,6.7s-3,7.3-7.4,7.3-7.2-3.8-7.2-7,2.2-7,7.3-7M579.8,181.6c1.7,0,5-.9,5-6s-2.6-6.5-5.5-6.5-5.3,1.9-5.3,5.8,2.5,6.7,5.8,6.7"/>
      <path class="st1" d="M590.4,173.8v-3.8c0-.6,0-.9-.8-1h-.6q0-.2.3-.2h4.5c1.2,0,2.5.1,3.4.8.5.3,1.3,1.2,1.3,2.4s-.5,2.6-2.3,4.1c1.5,1.9,2.8,3.5,3.9,4.6,1,1,1.6,1.2,2.1,1.2.4.1.5.1.7.1s.2.1.2.1q0,.1-.4.1h-1.2c-1.1,0-1.5-.1-2-.4-.8-.4-1.5-1.3-2.5-2.6-.8-1-1.6-2.1-2-2.6,0,0,0-.1-.2-.1h-2.4v4.3c0,.5.2.9.7.9s.7.1.8.1,0,.1,0,.1q0,.1-.3.1c-1,0-2.2-.1-2.3-.1,0,0-1.3.1-1.8.1s-.3,0-.3-.1h0c.2-.1.4-.1.6-.2.4-.1.4-.4.5-.9v-7h0ZM592,175.3v.2c.3.1,1.2.3,2,.3s.9,0,1.4-.3c.6-.4,1.1-1.4,1.1-2.7,0-2.2-1.2-3.5-3.2-3.5s-1.1.1-1.3.1,0,.1,0,.2v5.7Z"/>
      <path class="st1" d="M603.9,181.9c-.3-.1-.3-.2-.3-.7v-2.2s.2.1.2.2v.7c.3,1.3,1.7,1.8,2.9,1.8,1.8,0,2.8-1,2.8-2.4s-.7-1.9-2.3-3.1l-.8-.6c-2-1.5-2.6-2.6-2.6-3.8,0-2.1,1.7-3.4,4.1-3.4s1.5.1,1.9.2c.4.1.5.1.7.1s.2,0,.2.1v1.9c0,1.2,0,.4,0,.4,0,0,0-.1-.2-.2,0-.2-.2-.7-.3-.9s-.7-.9-2.4-.9-2.5.7-2.5,1.9.6,1.8,2.4,3l.5.4c2.2,1.5,3,2.8,3,4.3s-.4,2.2-1.7,3c-.8.5-1.9.6-2.9.6s-2-.1-2.8-.4"/>
      <path class="st1" d="M620.8,181.3c2,0,2.5-.3,2.9-.8.2-.2.3-.7.4-1,0-.2,0-.3.2-.3s0,.1,0,.4c0,.6-.3,1.6-.4,2.1,0,.4,0,.5-.5.5-3.1,0-6.2-.1-9.4-.1s-.3,0-.3-.1,0-.2.3-.5c2.8-4,5.5-8,8-11.9h-4.1c-.9,0-2,0-2.6.3-.7.3-1,1-1,1.4s0,.3-.3.3,0-.1,0-.2c0-.2.3-1.8.4-2.4q0-.3.2-.3c.2,0,.3.1.8.1,1.8.1,2.6,0,3.2,0h5.2c.3,0,.4,0,.4.1v.3c-2.7,4.1-5.4,8.1-8.2,12.2h4.9-.1Z"/>
      <path class="st1" d="M631.8,169c.2-.6.3-.7.4-.7.2,0,.3.3.4.7.3.8,3.3,8.1,4.4,10.8.7,1.6,1.2,1.8,1.6,2,.3.1.5.1.7.1s.2,0,.2.1-.2.1-.4.1h-2.9c-.4,0-.6,0-.6-.1h0c0-.1.3-.3.2-.6l-1.7-4.1q0-.1-.2-.1h-4.3s0,0-.2.1l-1.1,2.9c-.2.4-.3.9-.3,1.2s.3.5.6.5h.4q0,.2-.3.2c-.4,0-1.4-.1-1.7-.1s-1.1.1-1.9.1-.4,0-.4-.1,0-.1.2-.1h.5c.8-.1,1.2-.7,1.6-1.6l4.7-11.3h0ZM633.8,176.4h0c0-.1-1.8-5-1.8-5,0-.3-.2-.3-.3,0l-1.7,4.9h0c0,.1,3.6.1,3.6.1h.2ZM635.5,165.8v.3h-.6c-1,.1-2.5.6-3.2.9,0,.1-.3.1-.3.1h0v-.3c.8-.5,2.7-1.7,2.9-1.8.4-.2.5-.3.6-.3s0,0,.2.2c0,.2.3.5.5.9"/>
      <path class="st1" d="M649.5,177.6c0-1.4,0-1.7-.8-1.8h-.6q0-.2.3-.2h4c.2,0,.3,0,.3.1h0c0,.1-.5.1-.5.1-.5.1-.7.4-.7,1v3.8c0,.5-.1.9-.3,1-1.2.6-2.9.8-3.9.8s-4-.2-6.1-1.9c-1.1-.9-2.2-2.9-2.2-5.1s1.5-4.9,3.1-5.9c1.7-1,3.5-1.1,4.9-1.1s2.5.2,2.8.3c.4.1,1,.2,1.5.2s.2.1.2.2v2.5c0,1.8,0,.4-.2.4s0-.1,0-.3,0-.8-.4-1.2c-.5-.7-1.9-1.4-4.3-1.4s-2.5.1-3.9,1.2c-1.1.8-1.8,2.4-1.8,4.5s1.3,4.3,2,4.9c1.5,1.4,3,1.9,4.7,1.9s1.5-.1,2-.3c.2-.1.4-.2.4-.5v-3.2h-.5Z"/>
      <path class="st1" d="M509,194.7v-4.5c0-.7-.2-1-.9-1.2-.2,0-.5-.1-.7-.1s-.2,0-.2-.1.1-.2.3-.2c.9,0,2.2.1,2.3.1.2,0,1.4-.1,2-.1s.3,0,.3.2-.1.1-.2.1-.3,0-.5.1c-.6.1-.7.5-.8,1.2v5.8h.1c.4-.4,4.2-4.3,4.9-5.1.6-.6,1.1-1.2,1.1-1.5s0-.4-.3-.4-.2-.1-.2-.2,0-.1.3-.1,1.1.1,1.6.1,1.5-.1,2-.1.3,0,.3.1,0,.1-.2.1c-.3,0-.8.1-1.2.3-.9.4-1.3.9-2.3,1.8-.5.5-4.2,4.1-4.6,4.6.5.6,4.9,5.1,5.8,5.9,1.8,1.6,2.1,2,3.1,2.4s1.2.3,1.3.3.3,0,.3.1,0,.2-.5.2h-2.5c-1.1-.1-1.6-.6-2.5-1.3-.9-.8-5.4-5.6-6.4-6.8h-.1v2.1c0,2,0,3.7.1,4.6.1.6.2,1.1.8,1.2.3,0,.6.1.8.1s.2.1.2.1c0,.1,0,.2-.3.2-1,0-2.2-.1-2.4-.1s-1.4.1-2,.1-.3,0-.3-.2,0-.1.2-.1.4,0,.6-.1c.4-.1.5-.5.6-1.2.1-.9.1-2.5.1-4.6v-3.8h0Z"/>
      <path class="st1" d="M529.4,190.7c4.2,0,7.3,2.5,7.3,6.7s-3,7.3-7.4,7.3-7.2-3.8-7.2-7,2.2-7,7.3-7M529.8,203.9c1.7,0,5-.9,5-6s-2.6-6.5-5.5-6.5-5.3,1.9-5.3,5.8,2.4,6.7,5.8,6.7"/>
      <path class="st1" d="M540.4,196.1v-3.8c0-.6,0-.9-.8-1h-.6q0-.2.3-.2h4.5c1.2,0,2.5.1,3.4.8.5.3,1.3,1.2,1.3,2.4s-.5,2.6-2.3,4.1c1.5,1.9,2.8,3.5,3.9,4.6,1,1,1.6,1.2,2.1,1.2.4.1.5.1.7.1s.2.1.2.1q0,.1-.4.1h-1.2c-1.1,0-1.5-.1-2-.4-.8-.4-1.5-1.3-2.5-2.6-.8-1-1.6-2.1-2-2.6,0,0,0-.1-.3-.1h-2.4v4.3c0,.5.2.9.7.9s.7.1.8.1,0,.1,0,.1q0,.1-.3.1c-1,0-2.2-.1-2.3-.1,0,0-1.3.1-1.8.1s-.3,0-.3-.1h0c.2-.1.4-.1.6-.2.4-.1.4-.4.5-.9v-7h.2ZM542,197.6v.2c.3.1,1.2.3,2,.3s.9,0,1.4-.3c.6-.4,1.1-1.4,1.1-2.7,0-2.2-1.2-3.5-3.2-3.5s-1.1.1-1.3.1,0,.1,0,.2v5.7Z"/>
      <path class="st1" d="M569.5,202.1c0,.6.2,1.6.9,1.8.5.2,1,.2,1.2.2s0,0,0,.1-.2.2-.4.2c-.4,0-2.5,0-3.2-.1-.4,0-.5-.1-.5-.2h0v-.7l-.9-9h0l-4.5,9.1c-.4.8-.5.9-.7.9s-.3-.2-.6-.8c-.5-.9-1.7-3.2-2.2-4.1-.5-1.1-2-4.1-2.4-4.9h0l-.7,8.1v.9c0,.3.2.4.4.5.3.1.6.1.7.1s0,.1,0,.1c0,.1,0,.2-.3.2-.7,0-1.6-.1-1.7-.1-.2,0-1.1.1-1.5.1s-.3,0-.3-.2,0-.1.2-.1.3,0,.5-.1c.6-.1.6-.8.7-1.4l1.3-11.6c0-.2,0-.3.2-.3s.3.1.4.3l5.6,11.1,5.4-11.1c0-.2.2-.3.3-.3s.2.1.3.5l1.5,10.8h.3Z"/>
      <path class="st1" d="M579.1,191.3c.2-.6.3-.7.4-.7.2,0,.3.3.4.7.3.8,3.3,8.1,4.4,10.8.7,1.6,1.2,1.8,1.6,2,.3.1.5.1.7.1s.2,0,.2.1-.2.1-.4.1h-2.9c-.4,0-.6,0-.6-.1h0c0-.1.3-.3.2-.6l-1.7-4.1q0-.1-.2-.1h-4.3s0,0-.2.1l-1.1,2.9c-.2.4-.3.9-.3,1.2s.3.5.6.5h.4q0,.2-.3.2c-.4,0-1.5-.1-1.7-.1s-1.1.1-1.9.1-.4,0-.4-.1,0-.1.2-.1h.5c.8-.1,1.2-.7,1.6-1.6l4.7-11.3h0ZM581.1,198.7h0c0-.1-1.8-5-1.8-5,0-.3-.2-.3-.3,0l-1.7,4.9h0c0,.1,3.6.1,3.6.1h.2ZM582.8,188.1v.3h-.6c-1,.1-2.5.6-3.2.9,0,.1-.3.1-.3.1h0v-.3c.8-.5,2.7-1.7,2.9-1.8.4-.2.5-.3.6-.3s0,0,.2.2c0,.2.2.5.5.9"/>
      <path class="st1" d="M590.8,202c0,1.5.2,1.9.7,2,.3.1.8.1.9.1s0,.1,0,.1q0,.1-.3.1c-1.1,0-1.8-.1-2-.1s-.9.1-1.8.1-.3,0-.3-.1h0c0-.1.5-.1.8-.2.5-.1.5-.6.5-2.2v-10.2c0-.7,0-.9.3-.9s.5.4.7.5c.3.3,3,3.2,5.8,6.1,1.8,1.9,3.8,4,4.4,4.6l-.2-8.9c0-1.2,0-1.6-.7-1.7-.3-.1-.8-.1-.9-.1s0-.1,0-.2,0-.1.4-.1h3.5c.2,0,.3,0,.3.1s0,.2-.2.2h-.4c-.6.1-.7.5-.7,1.5v11.8c-.2,0-.4-.1-1.4-1.1-.2-.2-2.9-2.8-4.8-4.8-2.1-2.2-4.2-4.4-4.8-5.1l.2,8.5h0Z"/>
      <path class="st1" d="M610.2,199.8c0-1,0-1.3-.4-1.8,0-.3-2.6-4.2-3.3-5.2-.4-.7-.9-1.1-1.2-1.3s-.6-.3-.8-.3-.2-.1-.2-.2,0-.1.2-.1h3.4c.1,0,.2,0,.2.1q0,.1-.3.2c0,.1-.2.1-.2.3,0,.3,0,.5.3.7l3.4,5.6c.4-.8,2.7-4.6,3-5.2.2-.4.3-.7.3-.9,0-.3,0-.4-.3-.5-.2,0-.3-.1-.3-.2s0-.1.3-.1h3.1s.2,0,.2.1,0,.2-.2.2-.6.1-.9.2c-.4.2-.5.4-.9.9-.6.7-3.2,4.9-3.6,5.7-.3.6-.2,1.2-.2,1.8v3.3c0,.5.2.9.7.9s.7.1.8.1,0,.1,0,.1q0,.1-.3.1c-1,0-2.2-.1-2.3-.1s-1.3.1-1.8.1-.3,0-.3-.1h0c.2-.1.4-.1.5-.2.4-.1.5-.4.5-.9v-3.3h.6Z"/>
      <path class="st1" d="M622.7,191.3c.2-.6.3-.7.4-.7.2,0,.3.3.4.7.3.8,3.3,8.1,4.4,10.8.7,1.6,1.2,1.8,1.6,2,.3.1.5.1.7.1s.2,0,.2.1-.2.1-.4.1h-2.9c-.4,0-.6,0-.6-.1h0c0-.1.3-.3.2-.6l-1.7-4.1q0-.1-.2-.1h-4.5c0,.1-1,3-1,3-.2.4-.3.9-.3,1.2s.3.5.6.5h.4q0,.2-.3.2c-.4,0-1.5-.1-1.7-.1s-1.1.1-1.9.1-.4,0-.4-.1,0-.1.2-.1h.5c.8-.1,1.2-.7,1.6-1.6l4.6-11.3h.1ZM624.7,198.7h0c0-.1-1.8-5-1.8-5,0-.3-.2-.3-.3,0l-1.7,4.9h0c0,.1,3.6.1,3.6.1h.2Z"/>
    </g>
    <g>
      <rect class="st1" x="728.4" y="51.8" width="152.4" height="101.8"/>
      <g>
        <polygon class="st3" points="804.8 70.8 801.3 73.2 802.6 69.3 799.1 66.8 803.5 66.8 804.9 62.7 806.2 66.8 810.5 66.8 806.9 69.3 808.1 73.2 804.8 70.8"/>
        <polygon class="st3" points="804.8 140.4 801.3 142.8 802.6 138.9 799.1 136.4 803.5 136.4 804.9 132.3 806.2 136.4 810.5 136.4 806.9 138.9 808.1 142.8 804.8 140.4"/>
        <polygon class="st3" points="770.1 105.5 766.6 107.9 767.9 104 764.4 101.5 768.8 101.5 770.2 97.4 771.5 101.5 775.8 101.5 772.2 104 773.4 107.9 770.1 105.5"/>
        <polygon class="st3" points="775 87.8 771.5 90.2 772.9 86.3 769.3 83.8 773.7 83.8 775.1 79.7 776.4 83.8 780.8 83.8 777.2 86.3 778.4 90.2 775 87.8"/>
        <polygon class="st3" points="787.3 75.4 783.8 77.7 785.1 73.8 781.6 71.3 786 71.3 787.4 67.2 788.7 71.3 793 71.3 789.4 73.8 790.6 77.7 787.3 75.4"/>
        <polygon class="st3" points="821.7 75.4 818.2 77.7 819.5 73.8 816 71.3 820.4 71.3 821.8 67.2 823.1 71.3 827.4 71.3 823.9 73.8 825 77.7 821.7 75.4"/>
        <polygon class="st3" points="834.2 87.8 830.8 90.2 832.1 86.3 828.6 83.8 833 83.8 834.4 79.7 835.6 83.8 840 83.8 836.4 86.3 837.6 90.2 834.2 87.8"/>
        <polygon class="st3" points="774.8 122.8 771.4 125.2 772.7 121.3 769.2 118.8 773.6 118.8 775 114.7 776.2 118.8 780.6 118.8 777 121.3 778.2 125.2 774.8 122.8"/>
        <polygon class="st3" points="787.1 135.7 783.7 138.1 785 134.2 781.5 131.7 785.8 131.7 787.2 127.6 788.5 131.7 792.9 131.7 789.3 134.2 790.5 138.1 787.1 135.7"/>
        <polygon class="st3" points="822 135.7 818.5 138.1 819.8 134.2 816.3 131.7 820.7 131.7 822.1 127.6 823.4 131.7 827.7 131.7 824.1 134.2 825.3 138.1 822 135.7"/>
        <polygon class="st3" points="834.4 122.8 830.9 125.2 832.3 121.3 828.7 118.8 833.1 118.8 834.5 114.7 835.8 118.8 840.2 118.8 836.6 121.3 837.7 125.2 834.4 122.8"/>
        <polygon class="st3" points="839 105.5 835.6 107.9 836.9 104 833.4 101.5 837.8 101.5 839.1 97.4 840.4 101.5 844.8 101.5 841.2 104 842.4 107.9 839 105.5"/>
      </g>
    </g>
    <rect class="st1" x="431.2" y="51.7" width="1.6" height="152.8"/>
    <g>
      <path class="st1" d="M728.4,182.1l5.2-13.6h1.9l5.6,13.6h-2.1l-1.6-4.1h-5.7l-1.5,4.1h-1.8ZM732.4,176.5h4.6l-1.4-3.8c-.4-1.1-.8-2.1-1-2.8-.2.9-.4,1.7-.7,2.6l-1.5,4h0Z"/>
      <path class="st1" d="M743.3,182.1v-1.4l6.3-7.2c-.7,0-1.3.1-1.9.1h-4v-1.4h8.1v1.1l-5.3,6.3-1,1.1c.7-.1,1.5-.1,2.1-.1h4.6v1.4h-8.9,0Z"/>
      <path class="st1" d="M761.6,182.1v-13.6h9.9v1.6h-8.1v4.2h7.5v1.6h-7.5v4.6h8.4v1.6h-10.2Z"/>
      <path class="st1" d="M781.3,182.1v-1.5c-.8,1.1-1.8,1.7-3.1,1.7s-1.1-.1-1.6-.3-.9-.5-1.1-.8c-.2-.3-.4-.8-.5-1.2v-7.7h1.7v7.3c0,.4.3.8.7,1,.3.3.8.4,1.3.4s1-.1,1.4-.4c.4-.3.8-.6.9-1,.2-.4.3-1.1.3-1.9v-5.3h1.7v9.9h-1.7v-.2h0Z"/>
      <path class="st1" d="M786.4,182.1v-9.9h1.5v1.5c.4-.7.7-1.2,1.1-1.4.3-.2.7-.3,1.1-.3.6,0,1.1.2,1.7.5l-.6,1.6c-.4-.2-.8-.4-1.2-.4s-.7.1-1,.3-.5.5-.6.9c-.2.6-.3,1.2-.3,2v5.2h-1.7Z"/>
      <path class="st1" d="M793.2,177.2c0-1.8.5-3.2,1.5-4.1.8-.7,1.9-1.1,3.1-1.1s2.5.4,3.3,1.3c.9.9,1.3,2.1,1.3,3.7s-.2,2.3-.6,3c-.4.7-.9,1.3-1.7,1.7s-1.5.6-2.4.6c-1.4,0-2.5-.4-3.4-1.3-.7-.9-1.1-2.1-1.1-3.8h0ZM794.9,177.2c0,1.3.3,2.2.8,2.8.6.6,1.2.9,2.1.9s1.5-.3,2.1-.9c.6-.6.8-1.6.8-2.9s-.3-2.1-.8-2.8c-.6-.6-1.2-.9-2.1-.9s-1.5.3-2.1.9c-.5.7-.8,1.6-.8,2.9ZM796.9,171l1.2-2.6h2.2l-2,2.6h-1.4Z"/>
      <path class="st1" d="M805.5,185.9v-13.7h1.5v1.3c.4-.5.8-.9,1.2-1.1.5-.3,1-.4,1.6-.4s1.6.2,2.2.7c.6.4,1.1,1,1.5,1.8.3.8.5,1.7.5,2.6s-.2,1.9-.5,2.7c-.4.8-.9,1.4-1.6,1.9-.7.4-1.4.6-2.2.6s-1.1-.1-1.5-.4c-.4-.2-.8-.5-1.1-.9v4.8h-1.6ZM807,177.3c0,1.3.3,2.2.8,2.8s1.1.9,1.9.9,1.4-.3,1.9-.9c.5-.6.8-1.6.8-2.9s-.3-2.2-.8-2.8-1.1-.9-1.9-.9-1.3.3-1.9,1-.8,1.5-.8,2.8h0Z"/>
      <path class="st1" d="M823.6,180.9c-.6.5-1.2.9-1.8,1.1-.6.2-1.2.3-1.8.3-1.1,0-1.9-.3-2.5-.8s-.9-1.2-.9-2,0-.9.3-1.3c.2-.4.5-.7.9-1,.4-.2.8-.4,1.2-.5.3-.1.8-.2,1.5-.3,1.4-.2,2.3-.4,3-.6v-.4c0-.7-.2-1.2-.5-1.4-.4-.4-1.1-.6-1.9-.6s-1.4.1-1.7.4-.7.8-.8,1.5l-1.6-.2c0-.7.4-1.3.7-1.7s.8-.8,1.5-1c.6-.2,1.4-.3,2.2-.3s1.5.1,2.1.3c.5.2.9.4,1.2.7.2.3.4.7.5,1.1v6.7c0,.4.2.8.4,1.2h-1.7c-.4-.3-.5-.7-.5-1.2h.2ZM823.4,177.2c-.6.2-1.5.5-2.7.6-.7.1-1.2.2-1.5.3s-.5.3-.7.5-.2.5-.2.8.2.8.5,1.1.8.4,1.5.4,1.2-.1,1.7-.4c.5-.3.9-.7,1.1-1.2.2-.4.3-.9.3-1.7v-.4h0Z"/>
      <path class="st1" d="M828.7,170.4v-1.9h1.7v1.9h-1.7ZM828.7,182.1v-9.9h1.7v9.9h-1.7Z"/>
      <path class="st1" d="M849.8,168.5h1.8v7.9c0,1.4-.2,2.5-.5,3.3s-.9,1.5-1.7,2-1.9.8-3.2.8-2.3-.2-3.1-.7c-.8-.4-1.4-1.1-1.7-1.9-.3-.8-.5-2-.5-3.4v-7.9h1.8v7.9c0,1.2,0,2.1.3,2.6.2.6.6,1,1.1,1.3s1.2.5,2,.5c1.3,0,2.3-.3,2.8-.9.6-.6.8-1.8.8-3.5v-8h.1Z"/>
      <path class="st1" d="M855.4,182.1v-9.9h1.5v1.4c.7-1.1,1.8-1.6,3.1-1.6s1.1.1,1.6.3.9.5,1.1.8c.2.3.4.8.5,1.2v7.7h-1.7v-6c0-.7,0-1.2-.2-1.5,0-.3-.4-.6-.7-.8s-.7-.3-1.2-.3-1.3.2-1.8.7-.8,1.3-.8,2.6v5.4h-1.5.1Z"/>
      <path class="st1" d="M867,170.4v-1.9h1.7v1.9h-1.7ZM867,182.1v-9.9h1.7v9.9h-1.7Z"/>
      <path class="st1" d="M871.8,177.2c0-1.8.5-3.2,1.5-4.1.8-.7,1.9-1.1,3.1-1.1s2.5.4,3.3,1.3c.9.9,1.3,2.1,1.3,3.7s-.2,2.3-.6,3c-.4.7-.9,1.3-1.7,1.7s-1.5.6-2.4.6c-1.4,0-2.5-.4-3.4-1.3-.7-.9-1.1-2.1-1.1-3.8h0ZM873.5,177.2c0,1.3.3,2.2.8,2.8.6.6,1.2.9,2.1.9s1.5-.3,2.1-.9c.6-.6.8-1.6.8-2.9s-.3-2.1-.8-2.8c-.6-.6-1.2-.9-2.1-.9s-1.5.3-2.1.9c-.5.7-.8,1.6-.8,2.9ZM875.5,171l1.2-2.6h2.2l-2,2.6h-1.4Z"/>
      <path class="st1" d="M725.1,204.6v-8.6h-1.5v-1.3h1.5v-1c0-.7,0-1.2.2-1.5.2-.4.4-.8.9-1.1.4-.3,1-.4,1.7-.4s1,.1,1.6.2l-.3,1.5c-.3-.1-.7-.1-1-.1-.5,0-.9.1-1.1.3-.2.2-.3.6-.3,1.2v.9h1.9v1.3h-1.9v8.6h-1.7Z"/>
      <path class="st1" d="M731.5,192.9v-1.9h1.7v1.9h-1.7ZM731.5,204.6v-9.9h1.7v9.9h-1.7Z"/>
      <path class="st1" d="M736.7,204.6v-9.9h1.5v1.4c.7-1.1,1.8-1.6,3.1-1.6s1.1.1,1.6.3.9.5,1.1.8c.2.3.4.8.5,1.2v7.7h-1.7v-6c0-.7,0-1.2-.2-1.5,0-.3-.4-.6-.7-.8s-.7-.3-1.2-.3-1.3.2-1.8.7-.8,1.3-.8,2.6v5.4h-1.5.1Z"/>
      <path class="st1" d="M754.8,203.3c-.6.5-1.2.9-1.8,1.1-.6.2-1.2.3-1.8.3-1.1,0-1.9-.3-2.5-.8s-.9-1.2-.9-2,0-.9.3-1.3c.2-.4.5-.7.9-1,.4-.2.8-.4,1.2-.5.3-.1.8-.2,1.5-.3,1.4-.2,2.3-.4,3-.6v-.4c0-.7-.2-1.2-.5-1.4-.4-.4-1.1-.6-1.9-.6s-1.4.1-1.7.4c-.4.3-.7.8-.8,1.5l-1.6-.2c0-.7.4-1.3.7-1.7s.8-.8,1.5-1c.6-.2,1.4-.3,2.2-.3s1.5.1,2.1.3c.5.2.9.4,1.2.7.2.3.4.7.5,1.1v6.7c0,.4.2.8.4,1.2h-1.7c-.3-.3-.4-.7-.5-1.2h.2ZM754.7,199.6c-.6.2-1.5.5-2.7.6-.7.1-1.2.2-1.5.3s-.5.3-.7.5-.2.5-.2.8.2.8.5,1.1.8.4,1.5.4,1.2-.1,1.7-.4c.5-.3.9-.7,1.1-1.2.2-.4.3-.9.3-1.7v-.4h0Z"/>
      <path class="st1" d="M760,204.6v-9.9h1.5v1.4c.7-1.1,1.8-1.6,3.1-1.6s1.1.1,1.6.3.9.5,1.1.8c.2.3.4.8.5,1.2v7.7h-1.7v-6c0-.7,0-1.2-.2-1.5,0-.3-.4-.6-.7-.8s-.7-.3-1.2-.3-1.3.2-1.8.7-.8,1.3-.8,2.6v5.4h-1.5.1Z"/>
      <path class="st1" d="M770.9,201.6l1.7-.3c0,.7.4,1.2.8,1.5.4.4,1,.5,1.8.5s1.3-.2,1.7-.5.6-.7.6-1.1-.2-.7-.5-.9c-.2-.1-.8-.3-1.7-.6-1.2-.3-2.1-.6-2.6-.8s-.8-.5-1.1-.9c-.2-.4-.4-.8-.4-1.3s0-.8.3-1.2.5-.7.8-.9.6-.4,1.1-.5c.4-.1.9-.2,1.4-.2.8,0,1.5.1,2,.3.6.2,1,.5,1.3.9s.5.9.6,1.5l-1.6.2c0-.5-.3-.9-.6-1.2-.4-.3-.9-.4-1.5-.4s-1.3.1-1.6.4c-.3.3-.5.6-.5.9s0,.4.2.6c0,.2.4.3.6.4.2.1.7.2,1.5.4,1.2.3,2,.6,2.5.8s.8.5,1.1.9.4.9.4,1.4-.2,1.1-.5,1.6-.8.9-1.4,1.1c-.6.3-1.3.4-2.1.4-1.3,0-2.3-.3-2.9-.8-.8-.3-1.2-1.1-1.4-2.2h0Z"/>
      <path class="st1" d="M781.4,204.6v-1.4l6.3-7.2c-.7,0-1.3.1-1.9.1h-4v-1.4h8.1v1.1l-5.3,6.3-1,1.1c.7-.1,1.5-.1,2.1-.1h4.6v1.4h-8.9,0Z"/>
      <path class="st1" d="M793,193.5l1.2-2.6h2.2l-2,2.6h-1.4ZM793.1,204.6v-9.9h1.7v9.9h-1.7Z"/>
      <path class="st1" d="M798.6,204.6v-9.9h1.5v1.5c.4-.7.7-1.2,1.1-1.4.3-.2.7-.3,1.1-.3.6,0,1.1.2,1.7.5l-.6,1.6c-.4-.2-.8-.4-1.2-.4s-.7.1-1,.3-.5.5-.6.9c-.2.6-.3,1.2-.3,2v5.2h-1.7Z"/>
      <path class="st1" d="M805.4,199.6c0-1.8.5-3.2,1.5-4.1.8-.7,1.9-1.1,3.1-1.1s2.5.4,3.3,1.3c.9.9,1.3,2.1,1.3,3.7s-.2,2.3-.6,3c-.4.7-.9,1.3-1.7,1.7-.7.4-1.5.6-2.4.6-1.4,0-2.5-.4-3.4-1.3-.7-.8-1.1-2.1-1.1-3.8h0ZM807.1,199.6c0,1.3.3,2.2.8,2.8.6.6,1.2.9,2.1.9s1.5-.3,2.1-.9c.6-.6.8-1.6.8-2.9s-.3-2.1-.8-2.8c-.6-.6-1.2-.9-2.1-.9s-1.5.3-2.1.9c-.5.7-.8,1.7-.8,2.9Z"/>
      <path class="st1" d="M816.7,204.6v-1.4l6.3-7.2c-.7,0-1.3.1-1.9.1h-4v-1.4h8.1v1.1l-5.3,6.3-1,1.1c.7-.1,1.5-.1,2.1-.1h4.6v1.4h-8.9,0Z"/>
      <path class="st1" d="M834.7,203.3c-.6.5-1.2.9-1.8,1.1-.6.2-1.2.3-1.8.3-1.1,0-1.9-.3-2.5-.8s-.9-1.2-.9-2,0-.9.3-1.3c.2-.4.5-.7.9-1,.4-.2.8-.4,1.2-.5.3-.1.8-.2,1.5-.3,1.4-.2,2.3-.4,3-.6v-.4c0-.7-.2-1.2-.5-1.4-.4-.4-1.1-.6-1.9-.6s-1.4.1-1.7.4c-.4.3-.7.8-.8,1.5l-1.6-.2c0-.7.4-1.3.7-1.7s.8-.8,1.5-1c.6-.2,1.4-.3,2.2-.3s1.5.1,2.1.3c.5.2.9.4,1.2.7.2.3.4.7.5,1.1v6.7c0,.4.2.8.4,1.2h-1.7c-.3-.3-.4-.7-.5-1.2h.2ZM834.6,199.6c-.6.2-1.5.5-2.7.6-.7.1-1.2.2-1.5.3s-.5.3-.7.5-.2.5-.2.8.2.8.5,1.1.8.4,1.5.4,1.2-.1,1.7-.4c.5-.3.9-.7,1.1-1.2.2-.4.3-.9.3-1.7v-.4h0ZM831.3,193.5l1.2-2.6h2.2l-2,2.6h-1.4Z"/>
      <path class="st1" d="M839.2,201.6l1.7-.3c0,.7.4,1.2.8,1.5.4.4,1,.5,1.8.5s1.3-.2,1.7-.5.6-.7.6-1.1-.2-.7-.5-.9c-.2-.1-.8-.3-1.7-.6-1.2-.3-2.1-.6-2.6-.8s-.8-.5-1.1-.9c-.2-.4-.4-.8-.4-1.3s0-.8.3-1.2.5-.7.8-.9.6-.4,1.1-.5c.4-.1.9-.2,1.4-.2.8,0,1.5.1,2,.3.6.2,1,.5,1.3.9s.5.9.6,1.5l-1.6.2c0-.5-.3-.9-.6-1.2-.4-.3-.9-.4-1.5-.4s-1.3.1-1.6.4c-.3.3-.5.6-.5.9s0,.4.2.6c0,.2.4.3.6.4.2.1.7.2,1.5.4,1.2.3,2,.6,2.5.8s.8.5,1.1.9.4.9.4,1.4-.2,1.1-.5,1.6-.8.9-1.4,1.1c-.6.3-1.3.4-2.1.4-1.3,0-2.3-.3-2.9-.8-.8-.3-1.2-1.1-1.4-2.2h0Z"/>
      <path class="st1" d="M857,203.3c-.6.5-1.2.9-1.8,1.1-.6.2-1.2.3-1.8.3-1.1,0-1.9-.3-2.5-.8s-.9-1.2-.9-2,0-.9.3-1.3c.2-.4.5-.7.9-1,.4-.2.8-.4,1.2-.5.3-.1.8-.2,1.5-.3,1.4-.2,2.3-.4,3-.6v-.4c0-.7-.2-1.2-.5-1.4-.4-.4-1.1-.6-1.9-.6s-1.4.1-1.7.4c-.4.3-.7.8-.8,1.5l-1.6-.2c0-.7.4-1.3.7-1.7s.8-.8,1.5-1c.6-.2,1.4-.3,2.2-.3s1.5.1,2.1.3c.5.2.9.4,1.2.7.2.3.4.7.5,1.1v6.7c0,.4.2.8.4,1.2h-1.7c-.4-.3-.5-.7-.5-1.2h.2ZM856.8,199.6c-.6.2-1.5.5-2.7.6-.7.1-1.2.2-1.5.3s-.5.3-.7.5-.2.5-.2.8.2.8.5,1.1.8.4,1.5.4,1.2-.1,1.7-.4c.5-.3.9-.7,1.1-1.2.2-.4.3-.9.3-1.7v-.4h0ZM853.6,193.5l1.2-2.6h2.2l-2,2.6h-1.4Z"/>
      <path class="st1" d="M864.6,204.6l-3.8-9.9h1.8l2.1,5.9c.2.6.4,1.3.6,2,0-.5.4-1.1.6-1.9l2.2-6h1.7l-3.7,9.9h-1.5,0Z"/>
      <path class="st1" d="M878.6,203.3c-.6.5-1.2.9-1.8,1.1-.6.2-1.2.3-1.8.3-1.1,0-1.9-.3-2.5-.8s-.9-1.2-.9-2,0-.9.3-1.3c.2-.4.5-.7.9-1,.4-.2.8-.4,1.2-.5.3-.1.8-.2,1.5-.3,1.4-.2,2.3-.4,3-.6v-.4c0-.7-.2-1.2-.5-1.4-.4-.4-1.1-.6-1.9-.6s-1.4.1-1.7.4c-.4.3-.7.8-.8,1.5l-1.6-.2c0-.7.4-1.3.7-1.7s.8-.8,1.5-1c.6-.2,1.4-.3,2.2-.3s1.5.1,2.1.3c.5.2.9.4,1.2.7.2.3.4.7.5,1.1v6.7c0,.4.2.8.4,1.2h-1.7c-.3-.3-.4-.7-.5-1.2h.2ZM878.5,199.6c-.6.2-1.5.5-2.7.6-.7.1-1.2.2-1.5.3s-.5.3-.7.5-.2.5-.2.8.2.8.5,1.1.8.4,1.5.4,1.2-.1,1.7-.4c.5-.3.9-.7,1.1-1.2.2-.4.3-.9.3-1.7v-.4h0Z"/>
      <path class="st1" d="M883.8,204.6v-13.6h1.7v13.6h-1.7Z"/>
    </g>
    <g>
      <polygon class="st1" points="79.6 111.7 52.2 111.7 51.1 112.8 51.1 116.6 52.2 117.6 74.8 117.6 74.8 140.2 75.8 141.3 79.6 141.3 80.7 140.2 80.7 112.8 79.6 111.7"/>
      <polygon class="st0" points="91.4 99.9 64 99.9 63 101 63 104.8 64 105.8 86.6 105.8 86.6 128.4 87.6 129.4 91.4 129.4 92.5 128.4 92.5 101 91.4 99.9"/>
      <polygon class="st4" points="99.4 94 98.4 95 98.4 116.6 99.4 117.6 103.3 117.6 104.3 116.6 104.3 95 103.3 94 99.4 94"/>
      <polygon class="st4" points="98.4 89.1 97.4 88.1 75.8 88.1 74.8 89.1 74.8 93 75.8 94 97.4 94 98.4 93 98.4 89.1"/>
      <polygon class="st1" points="103.3 88.1 104.3 87 104.3 65.5 103.3 64.5 99.4 64.5 98.4 65.5 98.4 87 99.4 88.1 103.3 88.1"/>
      <polygon class="st1" points="127.9 89.1 126.9 88.1 105.4 88.1 104.3 89.1 104.3 93 105.4 94 126.9 94 127.9 93 127.9 89.1"/>
      <path class="st1" d="M133,121.6c.1,2.8,1.9,3.7,4.5,3.7s3.8-.7,3.8-2.4-3.4-2.5-6.8-3.4c-3.4-1-6.9-2.5-6.9-6.8s5.2-7.2,9.6-7.2,9.4,2.3,9.4,7.6h-6.1c.1-2.1-1.9-2.8-3.8-2.8s-3,.5-3,2,3.4,2.1,6.8,3.1c3.4,1,6.8,2.5,6.8,6.8s-5.1,7.9-10.3,7.9-10.2-2.4-10.2-8.4h6.2Z"/>
      <polygon class="st1" points="148.3 125.1 156.8 116.6 149 116.6 149 112.3 164 112.3 164 116.6 155.4 125.2 164.6 125.2 164.6 129.5 148.3 129.5 148.3 125.1"/>
      <path class="st1" d="M171.5,122.3c.1,2.3,1.5,3.9,3.8,3.9s2.7-.6,3.2-1.9h5.3c-1,4-4.7,5.7-8.5,5.7-5.6,0-9.4-3.4-9.4-9.1s4.2-9,9.3-9,9.2,4.6,9,10.4h-12.7ZM178.5,119.1c-.1-1.9-1.5-3.5-3.3-3.5s-3.3,1.4-3.6,3.5h6.9ZM180.7,105.6l-5.2,4.9h-4l3.2-4.9h6Z"/>
      <path class="st1" d="M197.5,118.6c0-1.5-1.3-2.5-2.7-2.5-3.1,0-3.6,2.7-3.6,5.1s1,4.5,3.3,4.5,2.9-1.1,3.2-2.9h5.5c-.5,4.6-4.1,7.2-8.6,7.2s-9-3.5-9-8.8,3.5-9.4,9-9.4,8.1,2.2,8.5,6.8h-5.6,0Z"/>
      <path class="st1" d="M205.5,105.9h5.6v8.8h.1c.9-1.8,3.2-2.8,5.2-2.8,5.7,0,6.2,4.2,6.2,6.6v11h-5.6v-8.3c0-2.3.3-4.7-2.8-4.7s-3,1.8-3,3.7v9.3h-5.6v-23.6h0Z"/>
      <path class="st1" d="M230.6,122.3c.1,2.3,1.5,3.9,3.8,3.9s2.7-.6,3.2-1.9h5.3c-1,4-4.7,5.7-8.5,5.7-5.6,0-9.4-3.4-9.4-9.1s4.2-9,9.3-9,9.2,4.6,9,10.4h-12.7ZM237.6,119.1c-.1-1.9-1.5-3.5-3.3-3.5s-3.3,1.4-3.6,3.5h6.9Z"/>
      <path class="st1" d="M245.5,112.3h5.5v2.3h.1c1-1.8,3.3-2.8,5.4-2.8,5.7,0,6.2,4.2,6.2,6.6v11h-5.7v-8.3c0-2.3.3-4.7-2.8-4.7s-3,1.8-3,3.7v9.4h-5.6v-17.2h0Z"/>
      <path class="st1" d="M275.2,131c-1.4,3.8-3.4,4.2-7.2,4.2h-2.6v-4.6h2c1.3,0,2.2-.7,2.2-1.9s-1.1-3.6-1.4-4.5l-4.4-11.9h5.9l3.2,11.2h.1l3.2-11.2h5.7l-6.7,18.7h0Z"/>
      <path class="st1" d="M288.9,110.2h-5.6v-4.3h5.6v4.3ZM283.3,112.3h5.6v17.1h-5.6v-17.1Z"/>
      <polygon class="st1" points="320.6 111.2 313.6 111.2 313.6 129.5 307.4 129.5 307.4 111.2 300.4 111.2 300.4 105.9 320.6 105.9 320.6 111.2"/>
      <path class="st1" d="M323.7,122.3c.1,2.3,1.5,3.9,3.8,3.9s2.7-.6,3.2-1.9h5.3c-1,4-4.7,5.7-8.5,5.7-5.6,0-9.4-3.4-9.4-9.1s4.2-9,9.3-9,9.2,4.6,9,10.4h-12.7,0ZM330.7,119.1c-.1-1.9-1.5-3.5-3.3-3.5s-3.3,1.4-3.6,3.5h6.9Z"/>
      <path class="st1" d="M338.8,112.3h5.5v3h.1c.8-2.2,2.7-3.3,5.2-3.3s.9,0,1.3,0v5.1c-.7-.2-1.4-.3-2.1-.3-2.8,0-4.2,1.9-4.2,4.1v8.5h-5.6v-17.2h-.2,0Z"/>
      <polygon class="st1" points="362.4 129.5 355.9 129.5 350.2 112.3 356 112.3 359.2 123.7 359.2 123.7 362.4 112.3 368.1 112.3 362.4 129.5"/>
      <path class="st1" d="M127.9,141.3h11.2c4.4,0,8.5,2,8.5,7.6s-3.3,8.1-8.5,8.1h-5.1v7.9h-6.1v-23.6ZM134.1,152.2h4.1c1.9,0,3.3-.8,3.3-2.9s-1.4-3.1-3.3-3.1h-4.1v6Z"/>
      <rect class="st1" x="149.8" y="141.3" width="5.6" height="23.6"/>
      <path class="st1" d="M175.8,164.8h-5.5v-2.3h-.1c-1.1,1.8-3.2,2.8-5.2,2.8-4.9,0-6.3-2.8-6.3-7.3v-10.3h5.6v9.9c0,2.3,1,3.1,2.8,3.1s3.1-.8,3.1-3.8v-9.2h5.6v17.1h0Z"/>
      <path class="st1" d="M183.2,159.2c0,.9.4,1.5.9,1.9s1.3.6,2.1.6,2.6-.5,2.6-1.8-1.8-1.6-2.7-1.8c-3.5-.9-8-1-8-5.6s4.5-5.3,7.8-5.3,7.7,1.1,7.9,5.5h-5.2c0-.7-.3-1.2-.7-1.5-.5-.3-1.1-.4-1.8-.4s-2.4.1-2.4,1.3,3.8,1.9,6.3,2.5c3.5.7,4.4,3.2,4.4,4.6,0,4.6-4.4,6.1-8.2,6.1s-8.2-1.4-8.4-6.1h5.4,0Z"/>
      <polygon class="st1" points="195.4 160.5 203.9 152 196.1 152 196.1 147.7 211.1 147.7 211.1 152 202.5 160.6 211.7 160.6 211.7 164.8 195.4 164.8 195.4 160.5"/>
      <path class="st1" d="M229.3,152.2h9.1v1.9h-6.9v3.3h6.4v1.8h-6.4v3.7h7v1.9h-9.3v-12.6h0ZM233.8,148.4h2.4l-2.5,2.5h-1.5l1.6-2.5Z"/>
      <path class="st1" d="M240.5,155.7h1.9v1.2h0c.6-1,1.7-1.5,2.8-1.5,2.9,0,4.3,2.2,4.3,4.9s-1.2,4.8-4,4.8-2.4-.4-3.1-1.4h0v4.6h-2v-12.6h.1ZM245,157c-1.7,0-2.6,1.3-2.6,3.3s.9,3.2,2.6,3.2,2.5-1.6,2.5-3.2c.1-1.7-.8-3.3-2.5-3.3"/>
      <path class="st1" d="M252.8,151.9h2.4l-2.5,2.5h-1.5l1.6-2.5ZM251.5,155.7h2v9.2h-2v-9.2Z"/>
      <path class="st1" d="M255,155.7h1.5v-2.8h2v2.8h1.8v1.5h-1.8v4.9c0,.8.1,1.3,1,1.3s.6,0,.9-.1v1.6c-.4,0-.9.1-1.3.1-2.1,0-2.5-.8-2.5-2.3v-5.4h-1.6v-1.6Z"/>
      <path class="st1" d="M263.7,161.9c.1,1.2,1,1.6,2.1,1.6s2.1-.2,2-1.2c-.1-1.1-1.5-1.2-3-1.5s-2.9-.9-2.9-2.7,2.2-2.6,3.8-2.6,3.6.8,3.8,2.8h-2.1c-.2-1-1-1.2-1.9-1.2s-1.7.1-1.7.9,1.5,1.1,3,1.5c1.5.3,3,.9,3,2.7s-2.2,3-4.1,3-4-1-4.1-3.2h2.1Z"/>
      <path class="st1" d="M279.6,164.9h-2v-1.3h0c-.5.9-1.6,1.5-2.6,1.5-2.4,0-3.4-1.2-3.4-3.6v-5.8h2v5.6c0,1.6.7,2.2,1.8,2.2,1.7,0,2.3-1.1,2.3-2.5v-5.3h2v9.2h0ZM273.1,152.3h2v1.9h-2v-1.9ZM278.2,154.2h-2v-1.9h2v1.9Z"/>
      <polygon class="st1" points="282 152.2 284 152.2 284 159.4 287.7 155.7 290.2 155.7 286.7 159.1 290.5 164.9 288.1 164.9 285.2 160.4 284 161.6 284 164.9 282 164.9 282 152.2"/>
      <path class="st1" d="M298.4,160.8c0,1.4.8,2.7,2.5,2.7s1.9-.5,2.2-1.5h1.9c-.4,2-2.1,3.1-4.2,3.1s-4.5-2-4.5-4.8,1.7-4.9,4.4-4.9,4.7,2.6,4.3,5.4h-6.6,0ZM303.1,159.5c-.1-1.3-.9-2.4-2.3-2.4s-2.4,1.1-2.4,2.4h4.7,0Z"/>
      <path class="st1" d="M315.5,164.4c0,2.8-1.6,4.1-4.5,4.1s-3.9-.7-4.1-2.9h2c.2,1.2,1.2,1.4,2.2,1.4,1.6,0,2.4-.8,2.4-2.3v-1.4h0c-.6,1-1.6,1.6-2.8,1.6-2.9,0-4.1-2.2-4.1-4.8s1.5-4.6,4.2-4.6,2.2.5,2.7,1.5h0v-1.3h2v8.7h0ZM313.5,160.1c0-1.6-.7-3-2.5-3s-2.4,1.7-2.4,3.2.7,3,2.4,3,2.5-1.7,2.5-3.2"/>
      <path class="st1" d="M316.9,155.7h2.2l2.4,6.9h0l2.3-6.9h2.1l-3.6,9.7c-.7,1.7-1.1,3.1-3.3,3.1s-.9,0-1.4-.1v-1.7c.3.1.6.1,1,.1.9,0,1.2-.5,1.4-1.3l.2-.7-3.3-9.1h0Z"/>
      <path class="st1" d="M335.5,164.9h-2v-1.3h0c-.5.9-1.6,1.5-2.6,1.5-2.4,0-3.4-1.2-3.4-3.6v-5.8h2v5.6c0,1.6.7,2.2,1.8,2.2,1.7,0,2.3-1.1,2.3-2.5v-5.3h2v9.2h0ZM328.9,152.3h2v1.9h-2v-1.9ZM334,154.2h-2v-1.9h2v1.9Z"/>
      <path class="st1" d="M336.9,155.7h1.5v-2.8h2v2.8h1.8v1.5h-1.8v4.9c0,.8.1,1.3,1,1.3s.6,0,.9-.1v1.6c-.4,0-.9.1-1.3.1-2.1,0-2.5-.8-2.5-2.3v-5.4h-1.5v-1.6h-.1Z"/>
      <path class="st1" d="M343.4,155.7h1.5v-2.8h2v2.8h1.8v1.5h-1.7v4.9c0,.8.1,1.3,1,1.3s.6,0,.9-.1v1.6c-.4,0-.9.1-1.3.1-2.1,0-2.5-.8-2.5-2.3v-5.4h-1.5v-1.6h-.2,0Z"/>
      <polygon class="st1" points="229.3 175.5 232.4 175.5 235.9 185.4 236 185.4 239.4 175.5 242.5 175.5 242.5 188.2 240.3 188.2 240.3 178.4 240.3 178.4 236.8 188.2 235 188.2 231.4 178.4 231.4 178.4 231.4 188.2 229.3 188.2 229.3 175.5"/>
      <path class="st1" d="M252.8,186.1c0,.5.1.7.5.7h.5v1.4c-.3.1-.9.2-1.3.2-.8,0-1.4-.3-1.6-1.1-.8.8-2.1,1.1-3.2,1.1-1.7,0-3.1-.9-3.1-2.7s1.8-2.7,3.5-2.9c1.5-.3,2.8-.1,2.8-1.3s-1.1-1.2-1.9-1.2-1.9.5-2,1.5h-2c.1-2.4,2.1-3.1,4.2-3.1s3.7.7,3.7,2.7v4.7h0ZM250.8,183.6c-.6.4-1.6.4-2.5.6-.9.1-1.7.5-1.7,1.5s1.2,1.2,1.9,1.2,2.3-.5,2.3-1.7v-1.6Z"/>
      <path class="st1" d="M263.6,187.7c0,2.8-1.6,4.1-4.5,4.1s-3.9-.7-4.1-2.9h2c.2,1.2,1.2,1.4,2.2,1.4,1.6,0,2.4-.8,2.4-2.3v-1.4h0c-.6,1-1.6,1.6-2.8,1.6-2.9,0-4.1-2.2-4.1-4.8s1.5-4.6,4.2-4.6,2.2.5,2.7,1.5h0v-1.3h2v8.7h0ZM261.6,183.4c0-1.6-.7-3-2.5-3s-2.4,1.7-2.4,3.2.7,3,2.4,3,2.5-1.7,2.5-3.2"/>
      <path class="st1" d="M265,179h2.2l2.4,6.9h0l2.3-6.9h2.1l-3.6,9.7c-.7,1.7-1.1,3.1-3.3,3.1s-.9,0-1.4-.1v-1.7c.3.1.6.1,1,.1.9,0,1.2-.5,1.4-1.3l.2-.7-3.3-9.1h0Z"/>
      <path class="st1" d="M282.9,186.1c0,.5.1.7.5.7h.5v1.4c-.3.1-.9.2-1.3.2-.8,0-1.4-.3-1.6-1.1-.8.8-2.1,1.1-3.2,1.1-1.7,0-3.1-.9-3.1-2.7s1.8-2.7,3.5-2.9c1.5-.3,2.8-.1,2.8-1.3s-1.1-1.2-1.9-1.2-1.9.5-2,1.5h-2c.1-2.4,2.1-3.1,4.2-3.1s3.7.7,3.7,2.7v4.7h-.1ZM280.9,183.6c-.6.4-1.6.4-2.5.6-.9.1-1.7.5-1.7,1.5s1.2,1.2,1.9,1.2,2.3-.5,2.3-1.7v-1.6h0Z"/>
      <path class="st1" d="M285.4,179h1.9v1.8h0c.2-1,1.4-2,2.7-2s.6,0,.8.1v2c-.3,0-.6-.1-.9-.1-1.4,0-2.5,1.1-2.5,3.1v4.4h-2v-9.3Z"/>
      <path class="st1" d="M291.6,183.6c0-2.8,1.7-4.8,4.6-4.8s4.6,2,4.6,4.8-1.7,4.9-4.6,4.9c-2.9-.1-4.6-2.1-4.6-4.9M298.8,183.6c0-1.6-.8-3.2-2.6-3.2s-2.6,1.7-2.6,3.2.8,3.3,2.6,3.3c1.8-.1,2.6-1.7,2.6-3.3"/>
      <path class="st1" d="M302.7,179h1.9v1.8h0c.2-1,1.4-2,2.7-2s.6,0,.8.1v2c-.3,0-.6-.1-.9-.1-1.4,0-2.5,1.1-2.5,3.1v4.4h-2v-9.3Z"/>
      <path class="st1" d="M311.1,185.2c.1,1.2,1,1.6,2.1,1.6s2.1-.2,2-1.2c-.1-1.1-1.5-1.2-3-1.5s-2.9-.9-2.9-2.7,2.2-2.6,3.8-2.6,3.6.8,3.8,2.8h-2.1c-.2-1-1-1.2-1.9-1.2s-1.7.1-1.7.9,1.5,1.1,3,1.5c1.5.3,3,.9,3,2.7s-2.2,3-4.1,3-4-1-4.1-3.2h2.1Z"/>
      <polygon class="st1" points="318.8 179 326.2 179 326.2 180.4 321 186.6 326.5 186.6 326.5 188.2 318.4 188.2 318.4 186.7 323.5 180.6 318.8 180.6 318.8 179"/>
      <path class="st1" d="M336,186.1c0,.5.1.7.5.7h.5v1.4c-.3.1-.9.2-1.3.2-.8,0-1.4-.3-1.6-1.1-.8.8-2.1,1.1-3.2,1.1-1.7,0-3.1-.9-3.1-2.7s1.8-2.7,3.5-2.9c1.5-.3,2.8-.1,2.8-1.3s-1.1-1.2-1.9-1.2-1.9.5-2,1.5h-2c.1-2.4,2.1-3.1,4.2-3.1s3.7.7,3.7,2.7v4.7h-.1ZM334,183.6c-.6.4-1.6.4-2.5.6-.9.1-1.7.5-1.7,1.5s1.2,1.2,1.9,1.2,2.3-.5,2.3-1.7v-1.6h0ZM332.5,175.2h2.4l-2.5,2.5h-1.5l1.6-2.5Z"/>
      <path class="st1" d="M346.8,187.7c0,2.8-1.6,4.1-4.5,4.1s-3.9-.7-4.1-2.9h2c.2,1.2,1.2,1.4,2.2,1.4,1.6,0,2.4-.8,2.4-2.3v-1.4h0c-.6,1-1.6,1.6-2.8,1.6-2.9,0-4.1-2.2-4.1-4.8s1.5-4.6,4.2-4.6,2.2.5,2.7,1.5h0v-1.3h2v8.7h0ZM344.8,183.4c0-1.6-.7-3-2.5-3s-2.4,1.7-2.4,3.2.7,3,2.4,3,2.5-1.7,2.5-3.2"/>
      <path class="st1" d="M348.7,183.6c0-2.8,1.7-4.8,4.6-4.8s4.6,2,4.6,4.8-1.7,4.9-4.6,4.9c-2.9-.1-4.6-2.1-4.6-4.9M356,183.6c0-1.6-.8-3.2-2.6-3.2s-2.6,1.7-2.6,3.2.8,3.3,2.6,3.3c1.8-.1,2.6-1.7,2.6-3.3"/>
      <path class="st1" d="M358.9,179h1.5v-2.8h2v2.8h1.8v1.5h-1.8v4.9c0,.8.1,1.3,1,1.3s.6,0,.9-.1v1.6c-.4,0-.9.1-1.3.1-2.1,0-2.5-.8-2.5-2.3v-5.4h-1.5v-1.6h-.1Z"/>
      <path class="st1" d="M366,185.9h2.4v2.2h-2.4v-2.2ZM366.1,175.5h2.2v3.7l-.6,5.5h-1l-.6-5.5v-3.7Z"/>
    </g>
    <g>
      <path class="st1" d="M715.7,230v-13.6h2.7l5.6,9.1v-9.1h2.6v13.6h-2.8l-5.5-8.9v8.9h-2.6Z"/>
      <path class="st1" d="M735.6,226.9l2.6.4c-.3,1-.9,1.7-1.6,2.2-.7.5-1.6.7-2.7.7-1.7,0-3-.6-3.8-1.7-.7-.9-1-2-1-3.4s.4-2.9,1.3-3.8c.9-.9,1.9-1.4,3.2-1.4s2.6.5,3.5,1.5c.8,1,1.3,2.5,1.2,4.5h-6.5c0,.8.2,1.4.6,1.8.4.4.9.6,1.5.6s.8-.1,1-.3c.4-.3.6-.6.7-1.1ZM735.8,224.3c0-.8-.2-1.3-.6-1.7-.4-.4-.8-.6-1.4-.6s-1,.2-1.4.6c-.4.4-.6,1-.5,1.7h3.9Z"/>
      <path class="st1" d="M739.3,230l3.6-5.1-3.4-4.8h3.2l1.7,2.7,1.8-2.7h3.1l-3.3,4.7,3.7,5.2h-3.2l-2-3.1-2,3.1h-3.2,0Z"/>
      <path class="st1" d="M756.5,220.2v2.1h-1.8v5.4c0,.1,0,.2.2.3,0,.1.3.1.4.1.2,0,.6-.1,1.1-.3l.2,2c-.6.3-1.3.4-2.1.4s-.9-.1-1.3-.2c-.4-.2-.7-.4-.8-.6-.2-.3-.3-.6-.4-1v-6.1h-1.2v-2.1h1.2v-2l2.6-1.5v3.5h1.9,0Z"/>
      <path class="st1" d="M765.1,225v-2.3h5.9v5.4c-.6.6-1.4,1-2.5,1.5-1.1.4-2.2.6-3.3.6s-2.7-.3-3.7-.9-1.9-1.5-2.4-2.6-.8-2.3-.8-3.6.3-2.7.9-3.8c.6-1.1,1.5-1.9,2.6-2.5.9-.5,2-.7,3.3-.7s3,.4,4,1.1c1,.7,1.6,1.7,1.8,2.9l-2.7.5c-.2-.7-.6-1.2-1.1-1.6-.5-.4-1.2-.6-2-.6-1.2,0-2.2.4-2.9,1.1-.7.8-1.1,1.9-1.1,3.4s.4,2.8,1.1,3.6c.7.8,1.7,1.2,2.8,1.2s1.2-.1,1.7-.3c.6-.2,1.1-.5,1.5-.8v-1.6h-3.1Z"/>
      <path class="st1" d="M779.9,226.9l2.6.4c-.3,1-.9,1.7-1.6,2.2-.7.5-1.6.7-2.7.7-1.7,0-3-.6-3.8-1.7-.7-.9-1-2-1-3.4s.4-2.9,1.3-3.8c.9-.9,1.9-1.4,3.2-1.4s2.6.5,3.5,1.5c.8,1,1.3,2.5,1.2,4.5h-6.5c0,.8.2,1.4.6,1.8.4.4.9.6,1.5.6s.8-.1,1-.3c.4-.3.6-.6.7-1.1ZM780.1,224.3c0-.8-.2-1.3-.6-1.7-.4-.4-.8-.6-1.4-.6s-1,.2-1.4.6c-.4.4-.6,1-.5,1.7h3.9Z"/>
      <path class="st1" d="M794.2,230h-2.6v-5c0-1.1,0-1.8-.2-2.1,0-.3-.3-.6-.5-.7-.3-.2-.6-.3-.9-.3-.5,0-.9.1-1.2.4-.4.2-.6.6-.7,1,0,.4-.2,1.2-.2,2.3v4.5h-2.6v-9.9h2.4v1.5c.9-1.1,1.9-1.7,3.3-1.7s1.1.1,1.6.3.8.5,1.1.8.4.7.5,1.1v7.8h0Z"/>
      <path class="st1" d="M803,226.9l2.6.4c-.3,1-.9,1.7-1.6,2.2-.7.5-1.6.7-2.7.7-1.7,0-3-.6-3.8-1.7-.7-.9-1-2-1-3.4s.4-2.9,1.3-3.8c.9-.9,1.9-1.4,3.2-1.4s2.6.5,3.5,1.5c.8,1,1.3,2.5,1.2,4.5h-6.5c0,.8.2,1.4.6,1.8.4.4.9.6,1.5.6s.8-.1,1-.3.6-.6.7-1.1ZM803.2,224.3c0-.8-.2-1.3-.6-1.7-.4-.4-.8-.6-1.4-.6s-1,.2-1.4.6c-.4.4-.6,1-.5,1.7h3.9Z"/>
      <path class="st1" d="M810.8,230h-2.6v-9.9h2.4v1.4c.4-.7.8-1.1,1.1-1.3s.7-.3,1.1-.3c.6,0,1.2.2,1.7.5l-.8,2.3c-.4-.3-.8-.4-1.2-.4s-.7.1-.9.3c-.3.2-.5.6-.6,1.1s-.2,1.6-.2,3.3v3h0Z"/>
      <path class="st1" d="M818.1,223.2l-2.4-.4c.3-1,.7-1.7,1.4-2.1.7-.5,1.6-.7,2.9-.7s2,.1,2.6.4c.6.3,1,.6,1.2,1.1.2.4.3,1.2.3,2.3v4.9c0,.4.2.9.5,1.3h-2.6c0-.2-.2-.4-.3-.8v-.3c-.4.4-.9.8-1.4,1s-1.1.3-1.6.3c-1,0-1.8-.3-2.4-.8-.6-.6-.9-1.2-.9-2.1s0-1.1.4-1.5c.3-.4.6-.8,1.1-1s1.2-.4,2.1-.6c1.2-.2,2.1-.4,2.5-.6v-.3c0-.5,0-.9-.4-1.1-.2-.2-.7-.3-1.4-.3s-.8.1-1.1.3c0,.2-.3.5-.5,1h0ZM821.6,225.3c-.3.1-.9.2-1.6.4-.7.2-1.2.3-1.4.5-.3.2-.5.5-.5.9s0,.7.4.9c.3.3.6.4,1,.4s.9-.2,1.3-.5c.3-.2.5-.5.6-.9v-1.7h.2Z"/>
      <path class="st1" d="M831.7,220.2v2.1h-1.8v5.4c0,.1,0,.2.2.3,0,.1.3.1.4.1.2,0,.6-.1,1.1-.3l.2,2c-.6.3-1.3.4-2.1.4s-.9-.1-1.3-.2c-.4-.2-.7-.4-.8-.6-.2-.3-.3-.6-.4-1v-6.1h-1.2v-2.1h1.2v-2l2.6-1.5v3.5h1.9,0Z"/>
      <path class="st1" d="M834.1,218.8v-2.4h2.6v2.4h-2.6ZM834.1,230v-9.9h2.6v9.9h-2.6Z"/>
      <path class="st1" d="M839.2,225c0-.9.2-1.7.6-2.5.4-.8,1-1.4,1.8-1.9.8-.4,1.7-.6,2.6-.6,1.5,0,2.7.5,3.7,1.5s1.4,2.2,1.4,3.7-.5,2.7-1.4,3.7c-1,1-2.2,1.5-3.6,1.5s-1.8-.2-2.6-.6c-.8-.4-1.4-1-1.9-1.8-.4-.9-.6-1.9-.6-3h0ZM841.9,225.1c0,1,.2,1.7.7,2.2s1,.8,1.7.8,1.3-.3,1.7-.8c.5-.5.7-1.3.7-2.3s-.2-1.7-.7-2.2-1-.8-1.7-.8-1.3.3-1.7.8c-.5.6-.7,1.3-.7,2.3Z"/>
      <path class="st1" d="M860.9,230h-2.6v-5c0-1.1,0-1.8-.2-2.1,0-.3-.3-.6-.5-.7-.3-.2-.6-.3-.9-.3-.5,0-.9.1-1.2.4-.4.2-.6.6-.7,1,0,.4-.2,1.2-.2,2.3v4.5h-2.6v-9.9h2.4v1.5c.9-1.1,1.9-1.7,3.3-1.7s1.1.1,1.6.3.8.5,1.1.8.4.7.5,1.1v7.8h0Z"/>
      <path class="st1" d="M869.7,230v-13.6h10.1v2.3h-7.4v3h6.8v2.3h-6.8v3.7h7.6v2.3h-10.3,0Z"/>
      <path class="st1" d="M882.6,216.4h2.8v9.7c0,.6.4,1,.8,1.3.4.3,1,.5,1.8.5s1.4-.2,1.8-.5.6-.7.7-1.2v-9.8h2.8v7.2c0,1.6,0,2.8-.2,3.5,0,.7-.4,1.2-.8,1.7-.4.5-.9.8-1.6,1.1-.7.3-1.5.4-2.6.4s-2.3-.2-3-.5-1.2-.7-1.6-1.2c-.4-.5-.6-1-.8-1.5-.2-.8-.3-1.9-.3-3.5v-7.2h.2Z"/>
    </g>
  </g>
</svg>